refGRF
version=1
nRows=12
nColumns=19
inDegrees=no
endheader
time	ground_force_r_vx	ground_force_r_vy	ground_force_r_vz	ground_force_l_vx	ground_force_l_vy	ground_force_l_vz	ground_force_r_px	ground_force_r_py	ground_force_r_pz	ground_force_l_px	ground_force_l_py	ground_force_l_pz	ground_torque_r_x	ground_torque_r_y	ground_torque_r_z	ground_torque_l_x	ground_torque_l_y	ground_torque_l_z
      1.13100000	      0.00003777	      0.00004343	      0.00000108	      0.00000000	      0.00000000	     -0.00000000	   -903.99997895	      0.00000000	    601.00001592	   2706.00000000	      0.00000000	    600.00000000	      0.00028194	      0.00039420	     -0.00000062	     -0.00000000	     -0.00000000	      0.00000000
      1.13200000	      0.00004712	      0.00004506	      0.00000645	      0.00000000	      0.00000000	     -0.00000000	   -903.99994870	      0.00000000	    601.00001318	   2706.00000000	      0.00000000	    600.00000000	      0.00036680	      0.00041629	      0.00004757	     -0.00000000	     -0.00000000	      0.00000000
      1.13300000	      0.00005038	      0.00004242	      0.00001011	      0.00000000	      0.00000000	     -0.00000000	   -903.99992937	      0.00000000	    601.00000988	   2706.00000000	      0.00000000	    600.00000000	      0.00040161	      0.00039740	      0.00008134	     -0.00000000	     -0.00000000	      0.00000000
      1.13400000	      0.00004855	      0.00003665	      0.00001211	      0.00000000	      0.00000000	     -0.00000000	   -903.99992032	      0.00000000	    601.00000643	   2706.00000000	      0.00000000	    600.00000000	      0.00039400	      0.00034791	      0.00010082	     -0.00000000	     -0.00000000	      0.00000000
      1.13500000	      0.00004288	      0.00002891	      0.00001262	      0.00000000	      0.00000000	     -0.00000000	   -903.99992014	      0.00000000	    601.00000315	   2706.00000000	      0.00000000	    600.00000000	      0.00035368	      0.00027865	      0.00010737	     -0.00000000	     -0.00000000	      0.00000000
      1.13600000	      0.00003468	      0.00002030	      0.00001193	      0.00000000	      0.00000000	     -0.00000000	   -903.99992695	      0.00000000	    601.00000029	   2706.00000000	      0.00000000	    600.00000000	      0.00029113	      0.00019987	      0.00010316	     -0.00000000	     -0.00000000	      0.00000000
      1.13700000	      0.00002521	      0.00001176	      0.00001035	     -0.00000000	      0.00000000	     -0.00000000	   -903.99993868	      0.00000000	    600.99999802	   2706.00000000	      0.00000000	    600.00000000	      0.00021655	      0.00012047	      0.00009086	     -0.00000000	     -0.00000000	      0.00000000
      1.13800000	      0.00001556	      0.00000401	      0.00000820	     -0.00000000	     -0.00000000	      0.00000000	   -903.99995326	      0.00000000	    600.99999640	   2706.00000000	      0.00000000	    600.00000000	      0.00013899	      0.00004750	      0.00007326	     -0.00000000	     -0.00000000	      0.00000000
      1.13900000	      0.00000661	     -0.00000243	      0.00000579	     -0.00000000	     -0.00000000	      0.00000000	   -903.99996879	      0.00000000	    600.99999545	   2706.00000000	      0.00000000	    600.00000000	      0.00006586	     -0.00001406	      0.00005304	     -0.00000000	     -0.00000000	      0.00000000
      1.14000000	     -0.00000101	     -0.00000729	      0.00000340	     -0.00460345	      0.00892640	     -0.00031124	   -903.99998374	      0.00000000	    600.99999509	   2705.97476282	      0.00000000	    599.89189683	      0.00000258	     -0.00006127	      0.00003250	      0.21834857	     -0.38192617	      0.05862442
      1.14100000	     -0.00000691	     -0.00001048	      0.00000121	     -0.08463559	      0.17034633	      0.01520365	   -903.99999692	      0.00000000	    600.99999524	   2705.72532262	      0.00000000	    598.82206240	     -0.00004744	     -0.00009308	      0.00001351	      1.46491166	     -2.44989312	      0.83901070
      1.14200000	     -0.00001096	     -0.00001207	     -0.00000061	     -0.53858192	      1.00539210	      0.16707838	   -904.00000755	      0.00000000	    600.99999577	   2704.92229692	      0.00000000	    595.32273596	     -0.00008266	     -0.00010999	     -0.00000261	      1.69255137	     -2.32145178	      4.34795188
